<?xml version="1.0" standalone="no"?>
<!DOCTYPE svg PUBLIC "-//W3C//DTD SVG 20010904//EN"
 "http://www.w3.org/TR/2001/REC-SVG-20010904/DTD/svg10.dtd">
<svg version="1.0" xmlns="http://www.w3.org/2000/svg"
 width="128.000000pt" height="128.000000pt" viewBox="0 0 128.000000 128.000000"
 preserveAspectRatio="xMidYMid meet">
<metadata>
Created by potrace 1.11, written by Peter Selinger 2001-2013
</metadata>
<g transform="translate(0.000000,128.000000) scale(0.100000,-0.100000)"
fill="rgba(255,255,255,0.836)" stroke="none">
<path d="M515 1188 c-156 -29 -328 -171 -394 -327 -25 -59 -28 -70 -39 -152
-21 -149 28 -314 133 -441 56 -67 176 -141 276 -169 65 -18 198 -20 269 -3
153 35 300 149 370 286 38 74 35 103 -11 103 -19 0 -31 -13 -58 -64 -37 -70
-92 -130 -164 -180 -182 -124 -439 -99 -597 59 -93 93 -141 203 -144 335 -2
90 17 159 70 257 26 47 128 145 180 171 116 59 268 69 394 28 l65 -22 17 22
c27 33 8 55 -70 80 -75 24 -216 32 -297 17z"/>
<path d="M967 1043 c-17 -16 -4 -48 37 -95 71 -81 109 -174 122 -298 5 -45 16
-60 46 -60 27 0 40 36 33 88 -3 25 -8 49 -10 52 -2 4 -7 22 -10 41 -16 95
-142 279 -189 279 -13 0 -26 -3 -29 -7z"/>
<path d="M534 1025 c-104 -32 -202 -111 -248 -203 -99 -196 -21 -437 173 -537
231 -119 512 17 570 274 42 188 -65 382 -247 452 -67 25 -187 32 -248 14z"/>
</g>
</svg>
